<?xml version='1.0' encoding='UTF-8' standalone='no'?>
<svg baseProfile="tiny" height="210mm" version="1.2" viewBox="0 0 2970 2100" width="297mm" xmlns="http://www.w3.org/2000/svg" xmlns:cc="http://creativecommons.org/ns#" xmlns:dc="http://purl.org/dc/elements/1.1/" xmlns:freecad="https://www.freecad.org/wiki/index.php?title=Svg_Namespace" xmlns:inkscape="http://www.inkscape.org/namespaces/inkscape" xmlns:rdf="http://www.w3.org/1999/02/22-rdf-syntax-ns#" xmlns:sodipodi="http://sodipodi.sourceforge.net/DTD/sodipodi-0.dtd" xmlns:svg="http://www.w3.org/2000/svg" xmlns:xlink="http://www.w3.org/1999/xlink">
 <title>FreeCAD SVG Export</title>
 <desc>Drawing page: Page exported from FreeCAD document: basler_mount</desc>
 <defs/>
 <g id="Page" inkscape:groupmode="layer" inkscape:label="TechDraw">
  <g id="Default_Template_A4_Landscape.svg" style="stroke: none;" transform="scale(10.000000, 10.000000)">
   <metadata id="metadata8">
    <rdf:RDF>
     <cc:Work rdf:about="">
      <dc:format>image/svg+xml</dc:format>
      <dc:type rdf:resource="http://purl.org/dc/dcmitype/StillImage"/>
     </cc:Work>
    </rdf:RDF>
   </metadata>
  </g>
  <g fill="none" fill-rule="evenodd" id="DrawingContent" stroke="black" stroke-linecap="square" stroke-linejoin="bevel" stroke-width="1">
   <g fill="#f1f3f5" fill-opacity="1" font-family="Sans Serif" font-size="31.75" font-style="normal" font-weight="400" stroke="none" transform="matrix(1,0,0,1,1508.57,1012.68)">
    <path d="M600,-500 L600,-300 C600,197.056 197.056,600 -300,600 L-500,600 C-555.228,600 -600,555.228 -600,500 L-600,-500 C-600,-555.228 -555.228,-600 -500,-600 L500,-600 C555.228,-600 600,-555.228 600,-500 " fill-rule="evenodd" vector-effect="non-scaling-stroke"/>
   </g>
   <g fill="#f1f3f5" fill-opacity="1" font-family="Sans Serif" font-size="31.75" font-style="normal" font-weight="400" stroke="none" transform="matrix(1,0,0,1,1508.57,1012.68)">
    <path d="M-355,400 C-355,424.853 -375.147,445 -400,445 C-424.853,445 -445,424.853 -445,400 C-445,375.147 -424.853,355 -400,355 C-375.147,355 -355,375.147 -355,400 " fill-rule="evenodd" vector-effect="non-scaling-stroke"/>
   </g>
   <g fill="#f1f3f5" fill-opacity="1" font-family="Sans Serif" font-size="31.75" font-style="normal" font-weight="400" stroke="none" transform="matrix(1,0,0,1,1508.57,1012.68)">
    <path d="M445,-400 C445,-375.147 424.853,-355 400,-355 C375.147,-355 355,-375.147 355,-400 C355,-424.853 375.147,-445 400,-445 C424.853,-445 445,-424.853 445,-400 " fill-rule="evenodd" vector-effect="non-scaling-stroke"/>
   </g>
   <g fill="#f1f3f5" fill-opacity="1" font-family="Sans Serif" font-size="31.75" font-style="normal" font-weight="400" stroke="none" transform="matrix(1,0,0,1,1508.57,1012.68)">
    <path d="M-355,-400 C-355,-375.147 -375.147,-355 -400,-355 C-424.853,-355 -445,-375.147 -445,-400 C-445,-424.853 -424.853,-445 -400,-445 C-375.147,-445 -355,-424.853 -355,-400 " fill-rule="evenodd" vector-effect="non-scaling-stroke"/>
   </g>
   <g fill="#f1f3f5" fill-opacity="1" font-family="Sans Serif" font-size="31.75" font-style="normal" font-weight="400" stroke="none" transform="matrix(1,0,0,1,1508.57,1012.68)">
    <path d="M41.9795,55.6389 C41.9795,73.8643 27.2049,88.6389 8.97949,88.6389 C-9.24591,88.6389 -24.0205,73.8643 -24.0205,55.6389 C-24.0205,37.4135 -9.24591,22.6389 8.97949,22.6389 C27.2049,22.6389 41.9795,37.4135 41.9795,55.6389 " fill-rule="evenodd" vector-effect="non-scaling-stroke"/>
   </g>
   <g fill="#f1f3f5" fill-opacity="1" font-family="Sans Serif" font-size="31.75" font-style="normal" font-weight="400" stroke="none" transform="matrix(1,0,0,1,1508.57,1012.68)">
    <path d="M-67,-100 C-67,-81.7746 -81.7746,-67 -100,-67 C-118.225,-67 -133,-81.7746 -133,-100 C-133,-118.225 -118.225,-133 -100,-133 C-81.7746,-133 -67,-118.225 -67,-100 " fill-rule="evenodd" vector-effect="non-scaling-stroke"/>
   </g>
   <g fill="#f1f3f5" fill-opacity="1" font-family="Sans Serif" font-size="31.75" font-style="normal" font-weight="400" stroke="none" transform="matrix(1,0,0,1,1508.57,1012.68)">
    <path d="M185.374,260.427 C185.374,278.652 170.599,293.427 152.374,293.427 C134.148,293.427 119.374,278.652 119.374,260.427 C119.374,242.202 134.148,227.427 152.374,227.427 C170.599,227.427 185.374,242.202 185.374,260.427 " fill-rule="evenodd" vector-effect="non-scaling-stroke"/>
   </g>
   <g fill="none" font-family="Sans Serif" font-size="31.75" font-style="normal" font-weight="400" stroke="#000000" stroke-linecap="round" stroke-linejoin="bevel" stroke-opacity="1" stroke-width="7" transform="matrix(1,0,0,1,1508.57,1012.68)">
    <path d="M-500,600 L-300,600" fill-rule="evenodd" vector-effect="none"/>
   </g>
   <g fill="none" font-family="Sans Serif" font-size="31.75" font-style="normal" font-weight="400" stroke="#000000" stroke-linecap="round" stroke-linejoin="bevel" stroke-opacity="1" stroke-width="7" transform="matrix(1,0,0,1,1508.57,1012.68)">
    <path d="M-500,600 C-555.228,600 -600,555.228 -600,500 " fill-rule="evenodd" vector-effect="none"/>
   </g>
   <g fill="none" font-family="Sans Serif" font-size="31.75" font-style="normal" font-weight="400" stroke="#000000" stroke-linecap="round" stroke-linejoin="bevel" stroke-opacity="1" stroke-width="7" transform="matrix(1,0,0,1,1508.57,1012.68)">
    <path d="M-300,600 C197.056,600 600,197.056 600,-300 " fill-rule="evenodd" vector-effect="none"/>
   </g>
   <g fill="none" font-family="Sans Serif" font-size="31.75" font-style="normal" font-weight="400" stroke="#000000" stroke-linecap="round" stroke-linejoin="bevel" stroke-opacity="1" stroke-width="7" transform="matrix(1,0,0,1,1508.57,1012.68)">
    <path d="M-600,-500 L-600,500" fill-rule="evenodd" vector-effect="none"/>
   </g>
   <g fill="none" font-family="Sans Serif" font-size="31.75" font-style="normal" font-weight="400" stroke="#000000" stroke-linecap="round" stroke-linejoin="bevel" stroke-opacity="1" stroke-width="7" transform="matrix(1,0,0,1,1508.57,1012.68)">
    <path d="M600,-500 L600,-300" fill-rule="evenodd" vector-effect="none"/>
   </g>
   <g fill="none" font-family="Sans Serif" font-size="31.75" font-style="normal" font-weight="400" stroke="#000000" stroke-linecap="round" stroke-linejoin="bevel" stroke-opacity="1" stroke-width="7" transform="matrix(1,0,0,1,1508.57,1012.68)">
    <path d="M-600,-500 C-600,-555.228 -555.228,-600 -500,-600 " fill-rule="evenodd" vector-effect="none"/>
   </g>
   <g fill="none" font-family="Sans Serif" font-size="31.75" font-style="normal" font-weight="400" stroke="#000000" stroke-linecap="round" stroke-linejoin="bevel" stroke-opacity="1" stroke-width="7" transform="matrix(1,0,0,1,1508.57,1012.68)">
    <path d="M600,-500 C600,-555.228 555.228,-600 500,-600 " fill-rule="evenodd" vector-effect="none"/>
   </g>
   <g fill="none" font-family="Sans Serif" font-size="31.75" font-style="normal" font-weight="400" stroke="#000000" stroke-linecap="round" stroke-linejoin="bevel" stroke-opacity="1" stroke-width="7" transform="matrix(1,0,0,1,1508.57,1012.68)">
    <path d="M500,-600 L-500,-600" fill-rule="evenodd" vector-effect="none"/>
   </g>
   <g fill="none" font-family="Sans Serif" font-size="31.75" font-style="normal" font-weight="400" stroke="#000000" stroke-linecap="round" stroke-linejoin="bevel" stroke-opacity="1" stroke-width="7" transform="matrix(1,0,0,1,1508.57,1012.68)">
    <path d="M-355,400 C-355,424.853 -375.147,445 -400,445 C-424.853,445 -445,424.853 -445,400 C-445,375.147 -424.853,355 -400,355 C-375.147,355 -355,375.147 -355,400 " fill-rule="evenodd" vector-effect="none"/>
   </g>
   <g fill="none" font-family="Sans Serif" font-size="31.75" font-style="normal" font-weight="400" stroke="#000000" stroke-linecap="round" stroke-linejoin="bevel" stroke-opacity="1" stroke-width="7" transform="matrix(1,0,0,1,1508.57,1012.68)">
    <path d="M185.374,260.427 C185.374,278.652 170.599,293.427 152.374,293.427 C134.148,293.427 119.374,278.652 119.374,260.427 C119.374,242.202 134.148,227.427 152.374,227.427 C170.599,227.427 185.374,242.202 185.374,260.427 " fill-rule="evenodd" vector-effect="none"/>
   </g>
   <g fill="none" font-family="Sans Serif" font-size="31.75" font-style="normal" font-weight="400" stroke="#000000" stroke-linecap="round" stroke-linejoin="bevel" stroke-opacity="1" stroke-width="7" transform="matrix(1,0,0,1,1508.57,1012.68)">
    <path d="M41.9795,55.6389 C41.9795,73.8643 27.2049,88.6389 8.97949,88.6389 C-9.24591,88.6389 -24.0205,73.8643 -24.0205,55.6389 C-24.0205,37.4135 -9.24591,22.6389 8.97949,22.6389 C27.2049,22.6389 41.9795,37.4135 41.9795,55.6389 " fill-rule="evenodd" vector-effect="none"/>
   </g>
   <g fill="none" font-family="Sans Serif" font-size="31.75" font-style="normal" font-weight="400" stroke="#000000" stroke-linecap="round" stroke-linejoin="bevel" stroke-opacity="1" stroke-width="7" transform="matrix(1,0,0,1,1508.57,1012.68)">
    <path d="M-67,-100 C-67,-81.7746 -81.7746,-67 -100,-67 C-118.225,-67 -133,-81.7746 -133,-100 C-133,-118.225 -118.225,-133 -100,-133 C-81.7746,-133 -67,-118.225 -67,-100 " fill-rule="evenodd" vector-effect="none"/>
   </g>
   <g fill="none" font-family="Sans Serif" font-size="31.75" font-style="normal" font-weight="400" stroke="#000000" stroke-linecap="round" stroke-linejoin="bevel" stroke-opacity="1" stroke-width="7" transform="matrix(1,0,0,1,1508.57,1012.68)">
    <path d="M-355,-400 C-355,-375.147 -375.147,-355 -400,-355 C-424.853,-355 -445,-375.147 -445,-400 C-445,-424.853 -424.853,-445 -400,-445 C-375.147,-445 -355,-424.853 -355,-400 " fill-rule="evenodd" vector-effect="none"/>
   </g>
   <g fill="none" font-family="Sans Serif" font-size="31.75" font-style="normal" font-weight="400" stroke="#000000" stroke-linecap="round" stroke-linejoin="bevel" stroke-opacity="1" stroke-width="7" transform="matrix(1,0,0,1,1508.57,1012.68)">
    <path d="M445,-400 C445,-375.147 424.853,-355 400,-355 C375.147,-355 355,-375.147 355,-400 C355,-424.853 375.147,-445 400,-445 C424.853,-445 445,-424.853 445,-400 " fill-rule="evenodd" vector-effect="none"/>
   </g>
   <g fill="none" font-family="Sans Serif" font-size="31.75" font-style="normal" font-weight="400" stroke="#212529" stroke-linecap="square" stroke-linejoin="bevel" stroke-opacity="1" stroke-width="1" transform="matrix(1,0,0,1,1415.98,192.373)">
    <text fill="#212529" fill-opacity="1" font-family="osifont" font-size="67" font-style="normal" font-weight="400" stroke="none" x="4" xml:space="preserve" y="92.2344">100</text>
   </g>
   <g fill="none" font-family="Sans Serif" font-size="31.75" font-style="normal" font-weight="400" stroke="#212529" stroke-linecap="round" stroke-linejoin="bevel" stroke-opacity="1" stroke-width="3.5" transform="matrix(1,0,0,1,1508.57,1012.68)">
    <path d="M500,-704.807 L-500,-704.807 M-500,-600 L-500,-732.807 M500,-600 L500,-732.807" fill-rule="evenodd" vector-effect="none"/>
   </g>
   <g fill="#212529" fill-opacity="1" font-family="Sans Serif" font-size="31.75" font-style="normal" font-weight="400" stroke="#212529" stroke-linecap="round" stroke-linejoin="bevel" stroke-opacity="1" stroke-width="3.5" transform="matrix(1,0,0,1,1008.57,307.873)">
    <path d="M0,0 L35,5.83333 L35,-5.83333 L0,0" fill-rule="evenodd" vector-effect="none"/>
   </g>
   <g fill="#212529" fill-opacity="1" font-family="Sans Serif" font-size="31.75" font-style="normal" font-weight="400" stroke="#212529" stroke-linecap="round" stroke-linejoin="bevel" stroke-opacity="1" stroke-width="3.5" transform="matrix(1,0,0,1,2008.57,307.873)">
    <path d="M0,0 L-35,-5.83333 L-35,5.83333 L0,0" fill-rule="evenodd" vector-effect="none"/>
   </g>
   <g fill="none" font-family="Sans Serif" font-size="31.75" font-style="normal" font-weight="400" stroke="#212529" stroke-linecap="square" stroke-linejoin="bevel" stroke-opacity="1" stroke-width="1" transform="matrix(0.902987,0.429668,-0.429668,0.902987,2135.32,1025.75)">
    <text fill="#212529" fill-opacity="1" font-family="osifont" font-size="67" font-style="normal" font-weight="400" stroke="none" x="4" xml:space="preserve" y="92.2344">R90</text>
   </g>
   <g fill="none" font-family="Sans Serif" font-size="31.75" font-style="normal" font-weight="400" stroke="#212529" stroke-linecap="round" stroke-linejoin="bevel" stroke-opacity="1" stroke-width="3.5" transform="matrix(1,0,0,1,1508.57,1012.68)">
    <path d="M-300,-300 L688.959,170.576" fill-rule="evenodd" vector-effect="none"/>
   </g>
   <g fill="#212529" fill-opacity="1" font-family="Sans Serif" font-size="31.75" font-style="normal" font-weight="400" stroke="#212529" stroke-linecap="round" stroke-linejoin="bevel" stroke-opacity="1" stroke-width="3.5" transform="matrix(1,0,0,1,2021.26,1099.38)">
    <path d="M0,0 L29.0981,20.3058 L34.1109,9.77097 L0,0" fill-rule="evenodd" vector-effect="none"/>
   </g>
   <g fill="none" font-family="Sans Serif" font-size="31.75" font-style="normal" font-weight="400" stroke="#212529" stroke-linecap="square" stroke-linejoin="bevel" stroke-opacity="1" stroke-width="1" transform="matrix(0,-1,1,0,2129.78,647.961)">
    <text fill="#212529" fill-opacity="1" font-family="osifont" font-size="67" font-style="normal" font-weight="400" stroke="none" x="4" xml:space="preserve" y="92.2344">20</text>
   </g>
   <g fill="none" font-family="Sans Serif" font-size="31.75" font-style="normal" font-weight="400" stroke="#212529" stroke-linecap="round" stroke-linejoin="bevel" stroke-opacity="1" stroke-width="3.5" transform="matrix(1,0,0,1,1508.57,1012.68)">
    <path d="M736.713,-500 L736.713,-300 M600,-300 L764.713,-300 M600,-500 L764.713,-500" fill-rule="evenodd" vector-effect="none"/>
   </g>
   <g fill="#212529" fill-opacity="1" font-family="Sans Serif" font-size="31.75" font-style="normal" font-weight="400" stroke="#212529" stroke-linecap="round" stroke-linejoin="bevel" stroke-opacity="1" stroke-width="3.5" transform="matrix(1,0,0,1,2245.28,712.68)">
    <path d="M0,0 L5.83333,-35 L-5.83333,-35 L0,0" fill-rule="evenodd" vector-effect="none"/>
   </g>
   <g fill="#212529" fill-opacity="1" font-family="Sans Serif" font-size="31.75" font-style="normal" font-weight="400" stroke="#212529" stroke-linecap="round" stroke-linejoin="bevel" stroke-opacity="1" stroke-width="3.5" transform="matrix(1,0,0,1,2245.28,512.68)">
    <path d="M0,0 L-5.83333,35 L5.83333,35 L0,0" fill-rule="evenodd" vector-effect="none"/>
   </g>
   <g fill="none" font-family="Sans Serif" font-size="31.75" font-style="normal" font-weight="400" stroke="#212529" stroke-linecap="square" stroke-linejoin="bevel" stroke-opacity="1" stroke-width="1" transform="matrix(0,-1,1,0,648.94,1059.45)">
    <text fill="#212529" fill-opacity="1" font-family="osifont" font-size="67" font-style="normal" font-weight="400" stroke="none" x="4" xml:space="preserve" y="92.2344">100</text>
   </g>
   <g fill="none" font-family="Sans Serif" font-size="31.75" font-style="normal" font-weight="400" stroke="#212529" stroke-linecap="round" stroke-linejoin="bevel" stroke-opacity="1" stroke-width="3.5" transform="matrix(1,0,0,1,1508.57,1012.68)">
    <path d="M-744.131,-500 L-744.131,500 M-600,500 L-772.131,500 M-600,-500 L-772.131,-500" fill-rule="evenodd" vector-effect="none"/>
   </g>
   <g fill="#212529" fill-opacity="1" font-family="Sans Serif" font-size="31.75" font-style="normal" font-weight="400" stroke="#212529" stroke-linecap="round" stroke-linejoin="bevel" stroke-opacity="1" stroke-width="3.5" transform="matrix(1,0,0,1,764.44,1512.68)">
    <path d="M0,0 L5.83333,-35 L-5.83333,-35 L0,0" fill-rule="evenodd" vector-effect="none"/>
   </g>
   <g fill="#212529" fill-opacity="1" font-family="Sans Serif" font-size="31.75" font-style="normal" font-weight="400" stroke="#212529" stroke-linecap="round" stroke-linejoin="bevel" stroke-opacity="1" stroke-width="3.5" transform="matrix(1,0,0,1,764.44,512.68)">
    <path d="M0,0 L-5.83333,35 L5.83333,35 L0,0" fill-rule="evenodd" vector-effect="none"/>
   </g>
   <g fill="none" font-family="Sans Serif" font-size="31.75" font-style="normal" font-weight="400" stroke="#212529" stroke-linecap="square" stroke-linejoin="bevel" stroke-opacity="1" stroke-width="1" transform="matrix(0.798655,0.60179,-0.60179,0.798655,833.982,236.509)">
    <text fill="#212529" fill-opacity="1" font-family="osifont" font-size="67" font-style="normal" font-weight="400" stroke="none" x="4" xml:space="preserve" y="92.2344">R10</text>
   </g>
   <g fill="none" font-family="Sans Serif" font-size="31.75" font-style="normal" font-weight="400" stroke="#212529" stroke-linecap="round" stroke-linejoin="bevel" stroke-opacity="1" stroke-width="3.5" transform="matrix(1,0,0,1,1508.57,1012.68)">
    <path d="M-500,-500 L-754.478,-691.75" fill-rule="evenodd" vector-effect="none"/>
   </g>
   <g fill="#212529" fill-opacity="1" font-family="Sans Serif" font-size="31.75" font-style="normal" font-weight="400" stroke="#212529" stroke-linecap="round" stroke-linejoin="bevel" stroke-opacity="1" stroke-width="3.5" transform="matrix(1,0,0,1,928.705,452.501)">
    <path d="M0,0 L-24.4425,-25.7215 L-31.4634,-16.4038 L0,0" fill-rule="evenodd" vector-effect="none"/>
   </g>
   <g fill="none" font-family="Sans Serif" font-size="31.75" font-style="normal" font-weight="400" stroke="#212529" stroke-linecap="square" stroke-linejoin="bevel" stroke-opacity="1" stroke-width="1" transform="matrix(1,0,0,1,1073.29,1678.19)">
    <text fill="#212529" fill-opacity="1" font-family="osifont" font-size="67" font-style="normal" font-weight="400" stroke="none" x="4" xml:space="preserve" y="92.2344">20</text>
   </g>
   <g fill="none" font-family="Sans Serif" font-size="31.75" font-style="normal" font-weight="400" stroke="#212529" stroke-linecap="round" stroke-linejoin="bevel" stroke-opacity="1" stroke-width="3.5" transform="matrix(1,0,0,1,1508.57,1012.68)">
    <path d="M-500,781.012 L-300,781.012 M-300,600 L-300,809.012 M-500,600 L-500,809.012" fill-rule="evenodd" vector-effect="none"/>
   </g>
   <g fill="#212529" fill-opacity="1" font-family="Sans Serif" font-size="31.75" font-style="normal" font-weight="400" stroke="#212529" stroke-linecap="round" stroke-linejoin="bevel" stroke-opacity="1" stroke-width="3.5" transform="matrix(1,0,0,1,1208.57,1793.69)">
    <path d="M0,0 L-35,-5.83333 L-35,5.83333 L0,0" fill-rule="evenodd" vector-effect="none"/>
   </g>
   <g fill="#212529" fill-opacity="1" font-family="Sans Serif" font-size="31.75" font-style="normal" font-weight="400" stroke="#212529" stroke-linecap="round" stroke-linejoin="bevel" stroke-opacity="1" stroke-width="3.5" transform="matrix(1,0,0,1,1008.57,1793.69)">
    <path d="M0,0 L35,5.83333 L35,-5.83333 L0,0" fill-rule="evenodd" vector-effect="none"/>
   </g>
   <g fill="none" font-family="Sans Serif" font-size="31.75" font-style="normal" font-weight="400" stroke="#212529" stroke-linecap="square" stroke-linejoin="bevel" stroke-opacity="1" stroke-width="1" transform="matrix(0,-1,1,0,1147.2,547.961)">
    <text fill="#212529" fill-opacity="1" font-family="osifont" font-size="67" font-style="normal" font-weight="400" stroke="none" x="4" xml:space="preserve" y="92.2344">20</text>
   </g>
   <g fill="none" font-family="Sans Serif" font-size="31.75" font-style="normal" font-weight="400" stroke="#212529" stroke-linecap="round" stroke-linejoin="bevel" stroke-opacity="1" stroke-width="3.5" transform="matrix(1,0,0,1,1508.57,1012.68)">
    <path d="M-245.868,-600 L-245.868,-400 M-400,-400 L-217.868,-400 M-400,-600 L-217.868,-600" fill-rule="evenodd" vector-effect="none"/>
   </g>
   <g fill="#212529" fill-opacity="1" font-family="Sans Serif" font-size="31.75" font-style="normal" font-weight="400" stroke="#212529" stroke-linecap="round" stroke-linejoin="bevel" stroke-opacity="1" stroke-width="3.5" transform="matrix(1,0,0,1,1262.7,612.68)">
    <path d="M0,0 L5.83333,-35 L-5.83333,-35 L0,0" fill-rule="evenodd" vector-effect="none"/>
   </g>
   <g fill="#212529" fill-opacity="1" font-family="Sans Serif" font-size="31.75" font-style="normal" font-weight="400" stroke="#212529" stroke-linecap="round" stroke-linejoin="bevel" stroke-opacity="1" stroke-width="3.5" transform="matrix(1,0,0,1,1262.7,412.68)">
    <path d="M0,0 L-5.83333,35 L5.83333,35 L0,0" fill-rule="evenodd" vector-effect="none"/>
   </g>
   <g fill="none" font-family="Sans Serif" font-size="31.75" font-style="normal" font-weight="400" stroke="#212529" stroke-linecap="square" stroke-linejoin="bevel" stroke-opacity="1" stroke-width="1" transform="matrix(1,0,0,1,973.289,601.842)">
    <text fill="#212529" fill-opacity="1" font-family="osifont" font-size="67" font-style="normal" font-weight="400" stroke="none" x="4" xml:space="preserve" y="92.2344">20</text>
   </g>
   <g fill="none" font-family="Sans Serif" font-size="31.75" font-style="normal" font-weight="400" stroke="#212529" stroke-linecap="round" stroke-linejoin="bevel" stroke-opacity="1" stroke-width="3.5" transform="matrix(1,0,0,1,1508.57,1012.68)">
    <path d="M-600,-295.338 L-400,-295.338 M-400,-400 L-400,-267.338 M-600,-400 L-600,-267.338" fill-rule="evenodd" vector-effect="none"/>
   </g>
   <g fill="#212529" fill-opacity="1" font-family="Sans Serif" font-size="31.75" font-style="normal" font-weight="400" stroke="#212529" stroke-linecap="round" stroke-linejoin="bevel" stroke-opacity="1" stroke-width="3.5" transform="matrix(1,0,0,1,1108.57,717.342)">
    <path d="M0,0 L-35,-5.83333 L-35,5.83333 L0,0" fill-rule="evenodd" vector-effect="none"/>
   </g>
   <g fill="#212529" fill-opacity="1" font-family="Sans Serif" font-size="31.75" font-style="normal" font-weight="400" stroke="#212529" stroke-linecap="round" stroke-linejoin="bevel" stroke-opacity="1" stroke-width="3.5" transform="matrix(1,0,0,1,908.57,717.342)">
    <path d="M0,0 L35,5.83333 L35,-5.83333 L0,0" fill-rule="evenodd" vector-effect="none"/>
   </g>
   <g fill="none" font-family="Sans Serif" font-size="31.75" font-style="normal" font-weight="400" stroke="#212529" stroke-linecap="square" stroke-linejoin="bevel" stroke-opacity="1" stroke-width="1" transform="matrix(1,0,0,1,1062.18,890.57)">
    <text fill="#212529" fill-opacity="1" font-family="osifont" font-size="67" font-style="normal" font-weight="400" stroke="none" x="4" xml:space="preserve" y="92.2344">50</text>
   </g>
   <g fill="none" font-family="Sans Serif" font-size="31.75" font-style="normal" font-weight="400" stroke="#212529" stroke-linecap="round" stroke-linejoin="bevel" stroke-opacity="1" stroke-width="3.5" transform="matrix(1,0,0,1,1508.57,1012.68)">
    <path d="M-600,-6.60978 L-100,-6.60978 M-100,-100 L-100,21.3902 M-600,-100 L-600,21.3902" fill-rule="evenodd" vector-effect="none"/>
   </g>
   <g fill="#212529" fill-opacity="1" font-family="Sans Serif" font-size="31.75" font-style="normal" font-weight="400" stroke="#212529" stroke-linecap="round" stroke-linejoin="bevel" stroke-opacity="1" stroke-width="3.5" transform="matrix(1,0,0,1,1408.57,1006.07)">
    <path d="M0,0 L-35,-5.83333 L-35,5.83333 L0,0" fill-rule="evenodd" vector-effect="none"/>
   </g>
   <g fill="#212529" fill-opacity="1" font-family="Sans Serif" font-size="31.75" font-style="normal" font-weight="400" stroke="#212529" stroke-linecap="round" stroke-linejoin="bevel" stroke-opacity="1" stroke-width="3.5" transform="matrix(1,0,0,1,908.57,1006.07)">
    <path d="M0,0 L35,5.83333 L35,-5.83333 L0,0" fill-rule="evenodd" vector-effect="none"/>
   </g>
   <g fill="none" font-family="Sans Serif" font-size="31.75" font-style="normal" font-weight="400" stroke="#212529" stroke-linecap="square" stroke-linejoin="bevel" stroke-opacity="1" stroke-width="1" transform="matrix(1,0,0,1,1408.37,1086.86)">
    <text fill="#212529" fill-opacity="1" font-family="osifont" font-size="67" font-style="normal" font-weight="400" stroke="none" x="4" xml:space="preserve" y="92.2344">10.9</text>
   </g>
   <g fill="none" font-family="Sans Serif" font-size="31.75" font-style="normal" font-weight="400" stroke="#212529" stroke-linecap="round" stroke-linejoin="bevel" stroke-opacity="1" stroke-width="3.5" transform="matrix(1,0,0,1,1508.57,1012.68)">
    <path d="M-170,189.685 L78.9795,189.685 M8.97949,55.6389 L8.97949,217.685 M-100,-100 L-100,217.685" fill-rule="evenodd" vector-effect="none"/>
   </g>
   <g fill="#212529" fill-opacity="1" font-family="Sans Serif" font-size="31.75" font-style="normal" font-weight="400" stroke="#212529" stroke-linecap="round" stroke-linejoin="bevel" stroke-opacity="1" stroke-width="3.5" transform="matrix(1,0,0,1,1517.55,1202.36)">
    <path d="M0,0 L35,5.83333 L35,-5.83333 L0,0" fill-rule="evenodd" vector-effect="none"/>
   </g>
   <g fill="#212529" fill-opacity="1" font-family="Sans Serif" font-size="31.75" font-style="normal" font-weight="400" stroke="#212529" stroke-linecap="round" stroke-linejoin="bevel" stroke-opacity="1" stroke-width="3.5" transform="matrix(1,0,0,1,1408.57,1202.36)">
    <path d="M0,0 L-35,-5.83333 L-35,5.83333 L0,0" fill-rule="evenodd" vector-effect="none"/>
   </g>
   <g fill="none" font-family="Sans Serif" font-size="31.75" font-style="normal" font-weight="400" stroke="#212529" stroke-linecap="square" stroke-linejoin="bevel" stroke-opacity="1" stroke-width="1" transform="matrix(1,0,0,1,1516.6,1299)">
    <text fill="#212529" fill-opacity="1" font-family="osifont" font-size="67" font-style="normal" font-weight="400" stroke="none" x="4" xml:space="preserve" y="92.2344">14.34</text>
   </g>
   <g fill="none" font-family="Sans Serif" font-size="31.75" font-style="normal" font-weight="400" stroke="#212529" stroke-linecap="round" stroke-linejoin="bevel" stroke-opacity="1" stroke-width="3.5" transform="matrix(1,0,0,1,1508.57,1012.68)">
    <path d="M-61.0205,401.818 L222.374,401.818 M152.374,260.427 L152.374,429.818 M8.97949,55.6389 L8.97949,429.818" fill-rule="evenodd" vector-effect="none"/>
   </g>
   <g fill="#212529" fill-opacity="1" font-family="Sans Serif" font-size="31.75" font-style="normal" font-weight="400" stroke="#212529" stroke-linecap="round" stroke-linejoin="bevel" stroke-opacity="1" stroke-width="3.5" transform="matrix(1,0,0,1,1660.94,1414.5)">
    <path d="M0,0 L35,5.83333 L35,-5.83333 L0,0" fill-rule="evenodd" vector-effect="none"/>
   </g>
   <g fill="#212529" fill-opacity="1" font-family="Sans Serif" font-size="31.75" font-style="normal" font-weight="400" stroke="#212529" stroke-linecap="round" stroke-linejoin="bevel" stroke-opacity="1" stroke-width="3.5" transform="matrix(1,0,0,1,1517.55,1414.5)">
    <path d="M0,0 L-35,-5.83333 L-35,5.83333 L0,0" fill-rule="evenodd" vector-effect="none"/>
   </g>
   <g fill="none" font-family="Sans Serif" font-size="31.75" font-style="normal" font-weight="400" stroke="#212529" stroke-linecap="square" stroke-linejoin="bevel" stroke-opacity="1" stroke-width="1" transform="matrix(0,-1,1,0,1385.94,698.993)">
    <text fill="#212529" fill-opacity="1" font-family="osifont" font-size="67" font-style="normal" font-weight="400" stroke="none" x="4" xml:space="preserve" y="92.2344">50</text>
   </g>
   <g fill="none" font-family="Sans Serif" font-size="31.75" font-style="normal" font-weight="400" stroke="#212529" stroke-linecap="round" stroke-linejoin="bevel" stroke-opacity="1" stroke-width="3.5" transform="matrix(1,0,0,1,1508.57,1012.68)">
    <path d="M-7.13109,-600 L-7.13109,-100 M-100,-100 L20.8689,-100 M-100,-600 L20.8689,-600" fill-rule="evenodd" vector-effect="none"/>
   </g>
   <g fill="#212529" fill-opacity="1" font-family="Sans Serif" font-size="31.75" font-style="normal" font-weight="400" stroke="#212529" stroke-linecap="round" stroke-linejoin="bevel" stroke-opacity="1" stroke-width="3.5" transform="matrix(1,0,0,1,1501.44,912.68)">
    <path d="M0,0 L5.83333,-35 L-5.83333,-35 L0,0" fill-rule="evenodd" vector-effect="none"/>
   </g>
   <g fill="#212529" fill-opacity="1" font-family="Sans Serif" font-size="31.75" font-style="normal" font-weight="400" stroke="#212529" stroke-linecap="round" stroke-linejoin="bevel" stroke-opacity="1" stroke-width="3.5" transform="matrix(1,0,0,1,1501.44,412.68)">
    <path d="M0,0 L-5.83333,35 L5.83333,35 L0,0" fill-rule="evenodd" vector-effect="none"/>
   </g>
   <g fill="none" font-family="Sans Serif" font-size="31.75" font-style="normal" font-weight="400" stroke="#212529" stroke-linecap="square" stroke-linejoin="bevel" stroke-opacity="1" stroke-width="1" transform="matrix(0,-1,1,0,1549.34,1062.54)">
    <text fill="#212529" fill-opacity="1" font-family="osifont" font-size="67" font-style="normal" font-weight="400" stroke="none" x="4" xml:space="preserve" y="92.2344">15.56</text>
   </g>
   <g fill="none" font-family="Sans Serif" font-size="31.75" font-style="normal" font-weight="400" stroke="#212529" stroke-linecap="round" stroke-linejoin="bevel" stroke-opacity="1" stroke-width="3.5" transform="matrix(1,0,0,1,1508.57,1012.68)">
    <path d="M156.269,-170 L156.269,125.639 M8.97949,55.6389 L184.269,55.6389 M-100,-100 L184.269,-100" fill-rule="evenodd" vector-effect="none"/>
   </g>
   <g fill="#212529" fill-opacity="1" font-family="Sans Serif" font-size="31.75" font-style="normal" font-weight="400" stroke="#212529" stroke-linecap="round" stroke-linejoin="bevel" stroke-opacity="1" stroke-width="3.5" transform="matrix(1,0,0,1,1664.84,1068.32)">
    <path d="M0,0 L-5.83333,35 L5.83333,35 L0,0" fill-rule="evenodd" vector-effect="none"/>
   </g>
   <g fill="#212529" fill-opacity="1" font-family="Sans Serif" font-size="31.75" font-style="normal" font-weight="400" stroke="#212529" stroke-linecap="round" stroke-linejoin="bevel" stroke-opacity="1" stroke-width="3.5" transform="matrix(1,0,0,1,1664.84,912.68)">
    <path d="M0,0 L5.83333,-35 L-5.83333,-35 L0,0" fill-rule="evenodd" vector-effect="none"/>
   </g>
   <g fill="none" font-family="Sans Serif" font-size="31.75" font-style="normal" font-weight="400" stroke="#212529" stroke-linecap="square" stroke-linejoin="bevel" stroke-opacity="1" stroke-width="1" transform="matrix(0,-1,1,0,1699.13,1247.19)">
    <text fill="#212529" fill-opacity="1" font-family="osifont" font-size="67" font-style="normal" font-weight="400" stroke="none" x="4" xml:space="preserve" y="92.2344">20.48</text>
   </g>
   <g fill="none" font-family="Sans Serif" font-size="31.75" font-style="normal" font-weight="400" stroke="#212529" stroke-linecap="round" stroke-linejoin="bevel" stroke-opacity="1" stroke-width="3.5" transform="matrix(1,0,0,1,1508.57,1012.68)">
    <path d="M306.057,55.6389 L306.057,260.427 M152.374,260.427 L334.057,260.427 M8.97949,55.6389 L334.057,55.6389" fill-rule="evenodd" vector-effect="none"/>
   </g>
   <g fill="#212529" fill-opacity="1" font-family="Sans Serif" font-size="31.75" font-style="normal" font-weight="400" stroke="#212529" stroke-linecap="round" stroke-linejoin="bevel" stroke-opacity="1" stroke-width="3.5" transform="matrix(1,0,0,1,1814.63,1273.11)">
    <path d="M0,0 L5.83333,-35 L-5.83333,-35 L0,0" fill-rule="evenodd" vector-effect="none"/>
   </g>
   <g fill="#212529" fill-opacity="1" font-family="Sans Serif" font-size="31.75" font-style="normal" font-weight="400" stroke="#212529" stroke-linecap="round" stroke-linejoin="bevel" stroke-opacity="1" stroke-width="3.5" transform="matrix(1,0,0,1,1814.63,1068.32)">
    <path d="M0,0 L-5.83333,35 L5.83333,35 L0,0" fill-rule="evenodd" vector-effect="none"/>
   </g>
   <g fill="none" font-family="Sans Serif" font-size="31.75" font-style="normal" font-weight="400" stroke="#212529" stroke-linecap="square" stroke-linejoin="bevel" stroke-opacity="1" stroke-width="1" transform="matrix(0.714738,0.699392,-0.699392,0.714738,1915.53,1359.58)">
    <text fill="#212529" fill-opacity="1" font-family="osifont" font-size="67" font-style="normal" font-weight="400" stroke="none" x="4" xml:space="preserve" y="92.2344">⌀6.6</text>
   </g>
   <g fill="none" font-family="Sans Serif" font-size="31.75" font-style="normal" font-weight="400" stroke="#212529" stroke-linecap="round" stroke-linejoin="bevel" stroke-opacity="1" stroke-width="3.5" transform="matrix(1,0,0,1,1508.57,1012.68)">
    <path d="M78.7555,188.39 L429.542,531.644" fill-rule="evenodd" vector-effect="none"/>
   </g>
   <g fill="#212529" fill-opacity="1" font-family="Sans Serif" font-size="31.75" font-style="normal" font-weight="400" stroke="#212529" stroke-linecap="round" stroke-linejoin="bevel" stroke-opacity="1" stroke-width="3.5" transform="matrix(1,0,0,1,1684.53,1296.19)">
    <path d="M0,0 L20.9361,28.648 L29.0956,20.3094 L0,0" fill-rule="evenodd" vector-effect="none"/>
   </g>
   <g fill="#212529" fill-opacity="1" font-family="Sans Serif" font-size="31.75" font-style="normal" font-weight="400" stroke="#212529" stroke-linecap="round" stroke-linejoin="bevel" stroke-opacity="1" stroke-width="3.5" transform="matrix(1,0,0,1,1637.36,1250.03)">
    <path d="M0,0 L-20.9361,-28.648 L-29.0956,-20.3094 L0,0" fill-rule="evenodd" vector-effect="none"/>
   </g>
   <g fill="none" font-family="Sans Serif" font-size="31.75" font-style="normal" font-weight="400" stroke="#212529" stroke-linecap="square" stroke-linejoin="bevel" stroke-opacity="1" stroke-width="1" transform="matrix(0.999017,0.0443182,-0.0443182,0.999017,1207.04,1300.68)">
    <text fill="#212529" fill-opacity="1" font-family="osifont" font-size="67" font-style="normal" font-weight="400" stroke="none" x="4" xml:space="preserve" y="92.2344">⌀9</text>
   </g>
   <g fill="none" font-family="Sans Serif" font-size="31.75" font-style="normal" font-weight="400" stroke="#212529" stroke-linecap="round" stroke-linejoin="bevel" stroke-opacity="1" stroke-width="3.5" transform="matrix(1,0,0,1,1508.57,1012.68)">
    <path d="M-514.887,394.903 L-207.706,408.53" fill-rule="evenodd" vector-effect="none"/>
   </g>
   <g fill="#212529" fill-opacity="1" font-family="Sans Serif" font-size="31.75" font-style="normal" font-weight="400" stroke="#212529" stroke-linecap="round" stroke-linejoin="bevel" stroke-opacity="1" stroke-width="3.5" transform="matrix(1,0,0,1,1153.53,1414.67)">
    <path d="M0,0 L34.7071,7.37874 L35.2241,-4.27647 L0,0" fill-rule="evenodd" vector-effect="none"/>
   </g>
   <g fill="#212529" fill-opacity="1" font-family="Sans Serif" font-size="31.75" font-style="normal" font-weight="400" stroke="#212529" stroke-linecap="round" stroke-linejoin="bevel" stroke-opacity="1" stroke-width="3.5" transform="matrix(1,0,0,1,1063.61,1410.69)">
    <path d="M0,0 L-34.7071,-7.37874 L-35.2241,4.27647 L0,0" fill-rule="evenodd" vector-effect="none"/>
   </g>
  </g>
 </g>
</svg>
